# xmcd
#
# Track frame offsets:
# 150
# 17540
# 31080
# 45172
# 64090
# 78940
# 96740
# 113825
# 129080
# 140090
#
# Disc length: 2043 seconds
#
#
# Revision: 3
# Processed by: cddbd v1.5.1PL2 Copyright (c) Steve Scherf et al.
# Submitted via: FreeRIP 2.943 
#
DISCID=7707f90a
DTITLE=Ricky Skaggs - Country Boy
DYEAR=1984
DGENRE=Country
TTITLE0=Country Boy
TTITLE1=Something In My Heart
TTITLE2=Patiently Waiting
TTITLE3=Two Highways
TTITLE4=Wheel Hoss
TTITLE5=Rendezous
TTITLE6=Brand New Me
TTITLE7=Window Up Above
TTITLE8=Baby, I'm In Love With You
TTITLE9=I'm Ready To Go
EXTD=
EXTT0=
EXTT1=
EXTT2=
EXTT3=
EXTT4=
EXTT5=
EXTT6=
EXTT7=
EXTT8=
EXTT9=
PLAYORDER=
